<svg width="80" height="80" viewBox="0 0 80 80" fill="none" xmlns="http://www.w3.org/2000/svg">
<path fill-rule="evenodd" clip-rule="evenodd" d="M40 80C62.0914 80 80 62.0914 80 40C80 17.9086 62.0914 0 40 0C17.9086 0 0 17.9086 0 40C0 62.0914 17.9086 80 40 80ZM43.2738 19.5833H62.4256L64.1666 21.3238V56.134L62.4256 57.8745H44.005L41.0104 60.8333H38.5729L35.5782 57.8745H17.1577L15.4166 56.134V21.3238L17.1577 19.5833H36.3095L37.5282 20.1055L39.7916 22.3333L42.055 20.1055L43.2738 19.5833ZM37.4238 54.9156L38.0506 55.5074L38.155 25.6403L35.5782 23.0643H18.8988V54.3935H36.3095L37.4238 54.9156ZM43.2738 54.3935H60.6845V23.0643H44.005L41.5675 25.5011V55.3681L42.055 54.9156L43.2738 54.3935ZM22.3809 30.0264H32.8273V33.5074H22.3809V30.0264ZM22.3809 43.9504H32.8273V47.4314H22.3809V43.9504ZM32.8273 36.9884H22.3809V40.4694H32.8273V36.9884ZM46.7559 30.0264H57.2023V33.5074H46.7559V30.0264ZM57.2023 36.9884H46.7559V40.4694H57.2023V36.9884ZM57.2023 43.9504H46.7559V47.4314H57.2023V43.9504Z" fill="#EB5E28"/>
</svg>
