<svg width="127" height="127" viewBox="0 0 127 127" fill="none" xmlns="http://www.w3.org/2000/svg">
<path d="M23 107H105L92.8818 118.339L64.202 126L37.1379 120.484L23 107Z" fill="#EB5E28"/>
<rect x="59" y="40" width="10" height="82" fill="#EB5E28"/>
<path d="M37.0001 72.4999V64C69 64.5 69 64.9999 69 116.5H59C59 98.5 59 73 37.0001 72.4999Z" fill="#EB5E28"/>
<path d="M91 72.4999V64C59.0001 64.5 59.0001 64.9999 59.0001 116.5H69.0001C69.0001 98.5 69.0001 73 91 72.4999Z" fill="#EB5E28"/>
<circle cx="64" cy="31" r="17" fill="#F7B40A"/>
<circle cx="15" cy="15" r="15" transform="matrix(-1 0 0 1 112 53)" fill="#F7B40A"/>
<circle cx="63.5" cy="63.5" r="61" stroke="#EB5E28" stroke-width="5"/>
<circle cx="31" cy="68" r="15" fill="#F7B40A"/>
</svg>
